<svg width="443" height="268" viewBox="0 0 443 268" fill="none" xmlns="http://www.w3.org/2000/svg">
<path d="M2.73 17.76C2.73 16.8967 2.94 16.0567 3.36 15.24C3.78 14.4 4.305 13.6417 4.935 12.965C5.58833 12.265 6.31167 11.6583 7.105 11.145C7.92167 10.6083 8.715 10.1883 9.485 9.885L10.5 11.355C9.63667 12.0083 8.98333 12.5917 8.54 13.105C8.12 13.6183 7.91 14.1317 7.91 14.645C7.91 15.4617 8.56333 16.3483 9.87 17.305C9.87 17.865 9.765 18.3667 9.555 18.81C9.345 19.2533 9.05333 19.6267 8.68 19.93C8.33 20.2333 7.92167 20.4667 7.455 20.63C7.01167 20.7933 6.545 20.875 6.055 20.875C5.09833 20.875 4.305 20.6183 3.675 20.105C3.045 19.5917 2.73 18.81 2.73 17.76ZM12.005 17.76C12.005 16.8967 12.215 16.0567 12.635 15.24C13.055 14.4 13.58 13.6417 14.21 12.965C14.8633 12.265 15.5867 11.6583 16.38 11.145C17.1967 10.6083 17.99 10.1883 18.76 9.885L19.74 11.355C18.9 12.0083 18.2583 12.5917 17.815 13.105C17.395 13.6183 17.185 14.1317 17.185 14.645C17.185 15.4617 17.8383 16.3483 19.145 17.305C19.145 17.865 19.04 18.3667 18.83 18.81C18.62 19.2533 18.3283 19.6267 17.955 19.93C17.605 20.2333 17.1967 20.4667 16.73 20.63C16.2633 20.7933 15.785 20.875 15.295 20.875C14.3617 20.875 13.58 20.6183 12.95 20.105C12.32 19.5917 12.005 18.81 12.005 17.76ZM23.3529 11.775H38.0879L37.5279 14.435H30.3879L28.9179 21.19H34.9029L34.3429 23.815H28.3579L26.7479 31.305H33.8879L33.3629 34H18.6279L23.3529 11.775ZM61.9205 34H54.1505L57.3705 18.88L49.0755 34H44.3155L42.7405 18.355L39.3805 34H36.2305L40.9555 11.775H49.8805L50.9655 24.305L57.6855 11.775H66.6805L61.9205 34ZM76.9967 24.41C77.6967 24.41 78.2801 24.1183 78.7467 23.535C79.2367 22.9517 79.6334 22.24 79.9367 21.4C80.2634 20.56 80.4967 19.685 80.6367 18.775C80.7767 17.865 80.8467 17.0717 80.8467 16.395C80.8467 15.765 80.7417 15.24 80.5317 14.82C80.3217 14.3767 79.8667 14.155 79.1667 14.155H77.5917L75.3867 24.41H76.9967ZM74.8967 26.65L73.3217 34H65.7617L70.4867 11.775H78.5717C79.9017 11.775 81.1151 11.845 82.2117 11.985C83.3084 12.125 84.2534 12.405 85.0467 12.825C85.8401 13.245 86.4584 13.8517 86.9017 14.645C87.3451 15.415 87.5667 16.4533 87.5667 17.76C87.5667 18.9733 87.3684 20.1283 86.9717 21.225C86.5984 22.2983 85.9801 23.2433 85.1167 24.06C84.2767 24.8533 83.1801 25.4833 81.8267 25.95C80.4734 26.4167 78.8284 26.65 76.8917 26.65H74.8967ZM101.133 11.425C103.14 11.425 104.761 11.6817 105.998 12.195C107.258 12.7083 108.25 13.5017 108.973 14.575C109.44 15.2983 109.801 16.115 110.058 17.025C110.315 17.935 110.443 18.985 110.443 20.175C110.443 21.2017 110.35 22.2283 110.163 23.255C109.976 24.2817 109.708 25.2733 109.358 26.23C109.031 27.1633 108.623 28.05 108.133 28.89C107.666 29.7067 107.141 30.43 106.558 31.06C105.461 32.25 104.19 33.09 102.743 33.58C101.32 34.0467 99.558 34.28 97.458 34.28C95.428 34.28 93.7947 34.07 92.558 33.65C91.3214 33.23 90.3414 32.5533 89.618 31.62C89.1047 30.9667 88.6964 30.1383 88.393 29.135C88.113 28.1317 87.973 26.8717 87.973 25.355C87.973 22.765 88.428 20.455 89.338 18.425C90.2714 16.3717 91.5897 14.75 93.293 13.56C94.3197 12.8367 95.463 12.3 96.723 11.95C97.983 11.6 99.453 11.425 101.133 11.425ZM97.178 31.83C97.7147 31.83 98.2164 31.5967 98.683 31.13C99.173 30.64 99.6164 29.9983 100.013 29.205C100.433 28.3883 100.806 27.4667 101.133 26.44C101.483 25.4133 101.775 24.3517 102.008 23.255C102.241 22.1583 102.416 21.0733 102.533 20C102.673 18.9033 102.743 17.9117 102.743 17.025C102.743 15.8117 102.615 14.9833 102.358 14.54C102.125 14.0733 101.775 13.84 101.308 13.84C100.771 13.84 100.258 14.0733 99.768 14.54C99.278 15.0067 98.8114 15.6367 98.368 16.43C97.948 17.2 97.563 18.0983 97.213 19.125C96.8864 20.1283 96.5947 21.1667 96.338 22.24C96.1047 23.3133 95.918 24.375 95.778 25.425C95.6614 26.475 95.603 27.4433 95.603 28.33C95.603 29.66 95.743 30.5817 96.023 31.095C96.3264 31.585 96.7114 31.83 97.178 31.83ZM112.686 11.775H121.226L121.821 26.93L127.666 11.775H134.596L135.506 26.93L141.386 11.775H145.061L136.416 34H128.541L127.806 21.435L122.556 34H114.156L112.686 11.775ZM147.733 11.775H162.468L161.908 14.435H154.768L153.298 21.19H159.283L158.723 23.815H152.738L151.128 31.305H158.268L157.743 34H143.008L147.733 11.775ZM182.415 17.06C182.415 18.4367 182.03 19.7083 181.26 20.875C180.49 22.0417 179.219 22.9283 177.445 23.535L181.505 34H173.7L170.62 24.305H170.235L168.17 34H160.61L165.335 11.775H174.54C175.614 11.775 176.629 11.845 177.585 11.985C178.542 12.1017 179.37 12.3583 180.07 12.755C180.794 13.1283 181.365 13.665 181.785 14.365C182.205 15.0417 182.415 15.94 182.415 17.06ZM172.335 22.065C172.942 22.065 173.455 21.8667 173.875 21.47C174.319 21.05 174.669 20.5483 174.925 19.965C175.205 19.3817 175.404 18.7633 175.52 18.11C175.637 17.4333 175.695 16.85 175.695 16.36C175.695 15.7533 175.59 15.24 175.38 14.82C175.17 14.3767 174.715 14.155 174.015 14.155H172.44L170.69 22.065H172.335ZM190.319 34H182.759L187.484 11.775H195.079L190.319 34ZM212.83 34H204.64L200.755 17.935L197.325 34H194.175L198.9 11.775H207.265L210.94 28.05L214.405 11.775H217.625L212.83 34ZM229.124 23.85H238.189L236.159 34H232.029L231.364 31.76H231.224C230.618 32.46 229.894 33.055 229.054 33.545C228.238 34.035 227.164 34.28 225.834 34.28C224.808 34.28 223.816 34.1167 222.859 33.79C221.926 33.44 221.086 32.9033 220.339 32.18C219.616 31.4333 219.033 30.465 218.589 29.275C218.146 28.085 217.924 26.65 217.924 24.97C217.924 23.15 218.204 21.4233 218.764 19.79C219.324 18.1567 220.164 16.7217 221.284 15.485C222.404 14.225 223.804 13.2333 225.484 12.51C227.164 11.7867 229.124 11.425 231.364 11.425C233.091 11.425 234.596 11.6233 235.879 12.02C237.163 12.4167 238.376 12.86 239.519 13.35L238.189 20.14H232.274C232.298 19.8833 232.333 19.58 232.379 19.23C232.426 18.88 232.461 18.5183 232.484 18.145C232.508 17.7483 232.531 17.3633 232.554 16.99C232.578 16.6167 232.589 16.29 232.589 16.01C232.589 15.8233 232.578 15.6133 232.554 15.38C232.531 15.1233 232.473 14.8783 232.379 14.645C232.286 14.4117 232.146 14.225 231.959 14.085C231.773 13.9217 231.504 13.84 231.154 13.84C230.548 13.84 229.988 14.0967 229.474 14.61C228.984 15.1 228.541 15.765 228.144 16.605C227.748 17.4217 227.398 18.355 227.094 19.405C226.814 20.455 226.569 21.5283 226.359 22.625C226.173 23.6983 226.021 24.76 225.904 25.81C225.811 26.8367 225.764 27.735 225.764 28.505C225.764 28.7383 225.776 29.03 225.799 29.38C225.823 29.73 225.893 30.08 226.009 30.43C226.149 30.7567 226.336 31.0483 226.569 31.305C226.826 31.5383 227.188 31.655 227.654 31.655C228.424 31.655 229.171 31.235 229.894 30.395C230.618 29.555 231.166 28.155 231.539 26.195H228.599L229.124 23.85ZM86.7322 76.11C86.1489 76.39 85.5422 76.67 84.9122 76.95C84.3055 77.2067 83.6522 77.44 82.9522 77.65C82.2522 77.8367 81.4822 77.9883 80.6422 78.105C79.8255 78.2217 78.9272 78.28 77.9472 78.28C74.8205 78.28 72.4055 77.58 70.7022 76.18C69.0222 74.78 68.1822 72.4467 68.1822 69.18C68.1822 67.29 68.4739 65.5167 69.0572 63.86C69.6405 62.18 70.5039 60.7217 71.6472 59.485C72.7905 58.225 74.2022 57.2333 75.8822 56.51C77.5622 55.7867 79.4872 55.425 81.6572 55.425C82.6839 55.425 83.6172 55.495 84.4572 55.635C85.3205 55.775 86.0905 55.9617 86.7672 56.195C87.4672 56.405 88.0855 56.6383 88.6222 56.895C89.1822 57.1517 89.6839 57.3967 90.1272 57.63L88.8672 64.14H82.5672C82.5905 63.9067 82.6139 63.6033 82.6372 63.23C82.6839 62.8567 82.7189 62.4833 82.7422 62.11C82.7655 61.7133 82.7889 61.3283 82.8122 60.955C82.8355 60.5817 82.8472 60.2667 82.8472 60.01C82.8472 59.8233 82.8355 59.6133 82.8122 59.38C82.7889 59.1233 82.7305 58.8783 82.6372 58.645C82.5439 58.4117 82.3922 58.225 82.1822 58.085C81.9955 57.9217 81.7389 57.84 81.4122 57.84C80.8055 57.84 80.2455 58.0967 79.7322 58.61C79.2422 59.1 78.7989 59.765 78.4022 60.605C78.0055 61.4217 77.6555 62.355 77.3522 63.405C77.0489 64.455 76.7922 65.5283 76.5822 66.625C76.3955 67.6983 76.2439 68.76 76.1272 69.81C76.0339 70.86 75.9872 71.7817 75.9872 72.575C75.9872 72.8083 75.9989 73.1 76.0222 73.45C76.0455 73.8 76.1155 74.1383 76.2322 74.465C76.3489 74.7917 76.5239 75.0717 76.7572 75.305C77.0139 75.5383 77.3522 75.655 77.7722 75.655C78.4955 75.655 79.1955 75.2117 79.8722 74.325C80.5489 73.415 81.1439 71.805 81.6572 69.495H88.1322L86.7322 76.11ZM103.731 55.425C105.737 55.425 107.359 55.6817 108.596 56.195C109.856 56.7083 110.847 57.5017 111.571 58.575C112.037 59.2983 112.399 60.115 112.656 61.025C112.912 61.935 113.041 62.985 113.041 64.175C113.041 65.2017 112.947 66.2283 112.761 67.255C112.574 68.2817 112.306 69.2733 111.956 70.23C111.629 71.1633 111.221 72.05 110.731 72.89C110.264 73.7067 109.739 74.43 109.156 75.06C108.059 76.25 106.787 77.09 105.341 77.58C103.917 78.0467 102.156 78.28 100.056 78.28C98.0257 78.28 96.3924 78.07 95.1557 77.65C93.919 77.23 92.939 76.5533 92.2157 75.62C91.7024 74.9667 91.294 74.1383 90.9907 73.135C90.7107 72.1317 90.5707 70.8717 90.5707 69.355C90.5707 66.765 91.0257 64.455 91.9357 62.425C92.869 60.3717 94.1874 58.75 95.8907 57.56C96.9174 56.8367 98.0607 56.3 99.3207 55.95C100.581 55.6 102.051 55.425 103.731 55.425ZM99.7757 75.83C100.312 75.83 100.814 75.5967 101.281 75.13C101.771 74.64 102.214 73.9983 102.611 73.205C103.031 72.3883 103.404 71.4667 103.731 70.44C104.081 69.4133 104.372 68.3517 104.606 67.255C104.839 66.1583 105.014 65.0733 105.131 64C105.271 62.9033 105.341 61.9117 105.341 61.025C105.341 59.8117 105.212 58.9833 104.956 58.54C104.722 58.0733 104.372 57.84 103.906 57.84C103.369 57.84 102.856 58.0733 102.366 58.54C101.876 59.0067 101.409 59.6367 100.966 60.43C100.546 61.2 100.161 62.0983 99.8107 63.125C99.484 64.1283 99.1924 65.1667 98.9357 66.24C98.7024 67.3133 98.5157 68.375 98.3757 69.425C98.259 70.475 98.2007 71.4433 98.2007 72.33C98.2007 73.66 98.3407 74.5817 98.6207 75.095C98.924 75.585 99.309 75.83 99.7757 75.83ZM118.031 55.775H125.626L121.496 75.06H128.601L128.006 78H113.306L118.031 55.775ZM134.915 55.775H142.51L138.38 75.06H145.485L144.89 78H130.19L134.915 55.775ZM151.8 55.775H166.535L165.975 58.435H158.835L157.365 65.19H163.35L162.79 67.815H156.805L155.195 75.305H162.335L161.81 78H147.075L151.8 55.775ZM184.008 76.11C183.424 76.39 182.818 76.67 182.188 76.95C181.581 77.2067 180.928 77.44 180.228 77.65C179.528 77.8367 178.758 77.9883 177.918 78.105C177.101 78.2217 176.203 78.28 175.223 78.28C172.096 78.28 169.681 77.58 167.978 76.18C166.298 74.78 165.458 72.4467 165.458 69.18C165.458 67.29 165.749 65.5167 166.333 63.86C166.916 62.18 167.779 60.7217 168.923 59.485C170.066 58.225 171.478 57.2333 173.158 56.51C174.838 55.7867 176.763 55.425 178.933 55.425C179.959 55.425 180.893 55.495 181.733 55.635C182.596 55.775 183.366 55.9617 184.043 56.195C184.743 56.405 185.361 56.6383 185.898 56.895C186.458 57.1517 186.959 57.3967 187.403 57.63L186.143 64.14H179.843C179.866 63.9067 179.889 63.6033 179.913 63.23C179.959 62.8567 179.994 62.4833 180.018 62.11C180.041 61.7133 180.064 61.3283 180.088 60.955C180.111 60.5817 180.123 60.2667 180.123 60.01C180.123 59.8233 180.111 59.6133 180.088 59.38C180.064 59.1233 180.006 58.8783 179.913 58.645C179.819 58.4117 179.668 58.225 179.458 58.085C179.271 57.9217 179.014 57.84 178.688 57.84C178.081 57.84 177.521 58.0967 177.008 58.61C176.518 59.1 176.074 59.765 175.678 60.605C175.281 61.4217 174.931 62.355 174.628 63.405C174.324 64.455 174.068 65.5283 173.858 66.625C173.671 67.6983 173.519 68.76 173.403 69.81C173.309 70.86 173.263 71.7817 173.263 72.575C173.263 72.8083 173.274 73.1 173.298 73.45C173.321 73.8 173.391 74.1383 173.508 74.465C173.624 74.7917 173.799 75.0717 174.033 75.305C174.289 75.5383 174.628 75.655 175.048 75.655C175.771 75.655 176.471 75.2117 177.148 74.325C177.824 73.415 178.419 71.805 178.933 69.495H185.408L184.008 76.11ZM207.936 58.435H202.301L198.136 78H190.576L194.741 58.435H189.176L189.806 55.775H208.531L207.936 58.435ZM213.595 78H206.035L210.76 55.775H218.355L213.595 78ZM231.836 55.425C233.843 55.425 235.465 55.6817 236.701 56.195C237.961 56.7083 238.953 57.5017 239.676 58.575C240.143 59.2983 240.505 60.115 240.761 61.025C241.018 61.935 241.146 62.985 241.146 64.175C241.146 65.2017 241.053 66.2283 240.866 67.255C240.68 68.2817 240.411 69.2733 240.061 70.23C239.735 71.1633 239.326 72.05 238.836 72.89C238.37 73.7067 237.845 74.43 237.261 75.06C236.165 76.25 234.893 77.09 233.446 77.58C232.023 78.0467 230.261 78.28 228.161 78.28C226.131 78.28 224.498 78.07 223.261 77.65C222.025 77.23 221.045 76.5533 220.321 75.62C219.808 74.9667 219.4 74.1383 219.096 73.135C218.816 72.1317 218.676 70.8717 218.676 69.355C218.676 66.765 219.131 64.455 220.041 62.425C220.975 60.3717 222.293 58.75 223.996 57.56C225.023 56.8367 226.166 56.3 227.426 55.95C228.686 55.6 230.156 55.425 231.836 55.425ZM227.881 75.83C228.418 75.83 228.92 75.5967 229.386 75.13C229.876 74.64 230.32 73.9983 230.716 73.205C231.136 72.3883 231.51 71.4667 231.836 70.44C232.186 69.4133 232.478 68.3517 232.711 67.255C232.945 66.1583 233.12 65.0733 233.236 64C233.376 62.9033 233.446 61.9117 233.446 61.025C233.446 59.8117 233.318 58.9833 233.061 58.54C232.828 58.0733 232.478 57.84 232.011 57.84C231.475 57.84 230.961 58.0733 230.471 58.54C229.981 59.0067 229.515 59.6367 229.071 60.43C228.651 61.2 228.266 62.0983 227.916 63.125C227.59 64.1283 227.298 65.1667 227.041 66.24C226.808 67.3133 226.621 68.375 226.481 69.425C226.365 70.475 226.306 71.4433 226.306 72.33C226.306 73.66 226.446 74.5817 226.726 75.095C227.03 75.585 227.415 75.83 227.881 75.83ZM260.066 78H251.876L247.991 61.935L244.561 78H241.411L246.136 55.775H254.501L258.176 72.05L261.641 55.775H264.861L260.066 78ZM277.726 62.215C277.796 61.865 277.831 61.3867 277.831 60.78C277.831 60.43 277.807 60.0917 277.761 59.765C277.714 59.415 277.632 59.1117 277.516 58.855C277.399 58.575 277.224 58.365 276.991 58.225C276.757 58.0617 276.454 57.98 276.081 57.98C275.661 57.98 275.276 58.0733 274.926 58.26C274.576 58.4467 274.261 58.6917 273.981 58.995C273.724 59.275 273.514 59.6133 273.351 60.01C273.211 60.3833 273.141 60.78 273.141 61.2C273.141 61.8067 273.292 62.2733 273.596 62.6C273.922 62.9267 274.342 63.195 274.856 63.405C275.369 63.615 275.952 63.79 276.606 63.93C277.259 64.07 277.936 64.2333 278.636 64.42C279.219 64.5833 279.802 64.7933 280.386 65.05C280.969 65.3067 281.482 65.6567 281.926 66.1C282.392 66.52 282.766 67.08 283.046 67.78C283.326 68.4567 283.466 69.3083 283.466 70.335C283.466 71.805 283.174 73.0417 282.591 74.045C282.007 75.0483 281.202 75.865 280.176 76.495C279.149 77.125 277.924 77.58 276.501 77.86C275.101 78.14 273.572 78.28 271.916 78.28C270.236 78.28 268.859 78.175 267.786 77.965C266.736 77.7317 265.907 77.4867 265.301 77.23C264.577 76.9267 264.041 76.5767 263.691 76.18L264.881 71.385H271.041C271.017 71.595 270.994 71.8867 270.971 72.26C270.947 72.61 270.936 72.89 270.936 73.1C270.936 73.38 270.971 73.6717 271.041 73.975C271.111 74.2783 271.216 74.5583 271.356 74.815C271.519 75.0717 271.741 75.2817 272.021 75.445C272.301 75.6083 272.651 75.69 273.071 75.69C273.537 75.69 273.946 75.585 274.296 75.375C274.669 75.165 274.972 74.9083 275.206 74.605C275.462 74.2783 275.649 73.9283 275.766 73.555C275.906 73.1583 275.976 72.7733 275.976 72.4C275.976 71.8867 275.847 71.455 275.591 71.105C275.357 70.755 275.031 70.4633 274.611 70.23C274.191 69.9733 273.701 69.7633 273.141 69.6C272.604 69.4133 272.044 69.2267 271.461 69.04C270.901 68.8767 270.306 68.6783 269.676 68.445C269.069 68.2117 268.509 67.885 267.996 67.465C267.482 67.045 267.051 66.52 266.701 65.89C266.374 65.2367 266.211 64.4083 266.211 63.405C266.211 61.9117 266.584 60.6633 267.331 59.66C268.101 58.6333 269.057 57.805 270.201 57.175C271.367 56.545 272.639 56.1017 274.016 55.845C275.392 55.565 276.699 55.425 277.936 55.425C279.569 55.425 280.969 55.6233 282.136 56.02C283.326 56.3933 284.224 56.8367 284.831 57.35L283.536 62.215H277.726ZM291.513 75.025C291.513 75.9117 291.303 76.7633 290.883 77.58C290.463 78.3967 289.926 79.1433 289.273 79.82C288.643 80.52 287.919 81.1267 287.103 81.64C286.309 82.1767 285.528 82.5967 284.758 82.9L283.778 81.43C284.618 80.7767 285.248 80.1933 285.668 79.68C286.111 79.1667 286.333 78.6533 286.333 78.14C286.333 77.3233 285.679 76.4367 284.373 75.48C284.373 74.92 284.478 74.4183 284.688 73.975C284.898 73.5317 285.178 73.1583 285.528 72.855C285.901 72.5517 286.321 72.3183 286.788 72.155C287.254 71.9917 287.733 71.91 288.223 71.91C289.156 71.91 289.938 72.1667 290.568 72.68C291.198 73.1933 291.513 73.975 291.513 75.025Z" fill="#167208"/>
<path d="M29.315 194.435H23.68L19.515 214H11.955L16.12 194.435H10.555L11.185 191.775H29.91L29.315 194.435ZM49.2191 197.06C49.2191 198.437 48.8341 199.708 48.0641 200.875C47.2941 202.042 46.0224 202.928 44.2491 203.535L48.3091 214H40.5041L37.4241 204.305H37.0391L34.9741 214H27.4141L32.1391 191.775H41.3441C42.4174 191.775 43.4324 191.845 44.3891 191.985C45.3457 192.102 46.1741 192.358 46.8741 192.755C47.5974 193.128 48.1691 193.665 48.5891 194.365C49.0091 195.042 49.2191 195.94 49.2191 197.06ZM39.1391 202.065C39.7457 202.065 40.2591 201.867 40.6791 201.47C41.1224 201.05 41.4724 200.548 41.7291 199.965C42.0091 199.382 42.2074 198.763 42.3241 198.11C42.4407 197.433 42.4991 196.85 42.4991 196.36C42.4991 195.753 42.3941 195.24 42.1841 194.82C41.9741 194.377 41.5191 194.155 40.8191 194.155H39.2441L37.4941 202.065H39.1391ZM68.9525 214H60.7625L60.2725 208.435H53.7975L51.3125 214H47.9175L58.2425 191.775H66.5375L68.9525 214ZM54.9525 205.88H60.0275L59.2225 196.36L54.9525 205.88ZM89.2722 214H81.0822L77.1972 197.935L73.7672 214H70.6172L75.3422 191.775H83.7072L87.3822 208.05L90.8472 191.775H94.0672L89.2722 214ZM106.932 198.215C107.002 197.865 107.037 197.387 107.037 196.78C107.037 196.43 107.013 196.092 106.967 195.765C106.92 195.415 106.838 195.112 106.722 194.855C106.605 194.575 106.43 194.365 106.197 194.225C105.963 194.062 105.66 193.98 105.287 193.98C104.867 193.98 104.482 194.073 104.132 194.26C103.782 194.447 103.467 194.692 103.187 194.995C102.93 195.275 102.72 195.613 102.557 196.01C102.417 196.383 102.347 196.78 102.347 197.2C102.347 197.807 102.498 198.273 102.802 198.6C103.128 198.927 103.548 199.195 104.062 199.405C104.575 199.615 105.158 199.79 105.812 199.93C106.465 200.07 107.142 200.233 107.842 200.42C108.425 200.583 109.008 200.793 109.592 201.05C110.175 201.307 110.688 201.657 111.132 202.1C111.598 202.52 111.972 203.08 112.252 203.78C112.532 204.457 112.672 205.308 112.672 206.335C112.672 207.805 112.38 209.042 111.797 210.045C111.213 211.048 110.408 211.865 109.382 212.495C108.355 213.125 107.13 213.58 105.707 213.86C104.307 214.14 102.778 214.28 101.122 214.28C99.4416 214.28 98.0649 214.175 96.9916 213.965C95.9416 213.732 95.1133 213.487 94.5066 213.23C93.7833 212.927 93.2466 212.577 92.8966 212.18L94.0866 207.385H100.247C100.223 207.595 100.2 207.887 100.177 208.26C100.153 208.61 100.142 208.89 100.142 209.1C100.142 209.38 100.177 209.672 100.247 209.975C100.317 210.278 100.422 210.558 100.562 210.815C100.725 211.072 100.947 211.282 101.227 211.445C101.507 211.608 101.857 211.69 102.277 211.69C102.743 211.69 103.152 211.585 103.502 211.375C103.875 211.165 104.178 210.908 104.412 210.605C104.668 210.278 104.855 209.928 104.972 209.555C105.112 209.158 105.182 208.773 105.182 208.4C105.182 207.887 105.053 207.455 104.797 207.105C104.563 206.755 104.237 206.463 103.817 206.23C103.397 205.973 102.907 205.763 102.347 205.6C101.81 205.413 101.25 205.227 100.667 205.04C100.107 204.877 99.5116 204.678 98.8816 204.445C98.2749 204.212 97.7149 203.885 97.2016 203.465C96.6883 203.045 96.2566 202.52 95.9066 201.89C95.5799 201.237 95.4166 200.408 95.4166 199.405C95.4166 197.912 95.7899 196.663 96.5366 195.66C97.3066 194.633 98.2633 193.805 99.4066 193.175C100.573 192.545 101.845 192.102 103.222 191.845C104.598 191.565 105.905 191.425 107.142 191.425C108.775 191.425 110.175 191.623 111.342 192.02C112.532 192.393 113.43 192.837 114.037 193.35L112.742 198.215H106.932ZM118.409 191.775H133.144L132.584 194.435H125.409L124.044 200.84H130.029L129.469 203.535H123.484L121.244 214H113.684L118.409 191.775ZM145.09 191.425C147.097 191.425 148.718 191.682 149.955 192.195C151.215 192.708 152.207 193.502 152.93 194.575C153.397 195.298 153.758 196.115 154.015 197.025C154.272 197.935 154.4 198.985 154.4 200.175C154.4 201.202 154.307 202.228 154.12 203.255C153.933 204.282 153.665 205.273 153.315 206.23C152.988 207.163 152.58 208.05 152.09 208.89C151.623 209.707 151.098 210.43 150.515 211.06C149.418 212.25 148.147 213.09 146.7 213.58C145.277 214.047 143.515 214.28 141.415 214.28C139.385 214.28 137.752 214.07 136.515 213.65C135.278 213.23 134.298 212.553 133.575 211.62C133.062 210.967 132.653 210.138 132.35 209.135C132.07 208.132 131.93 206.872 131.93 205.355C131.93 202.765 132.385 200.455 133.295 198.425C134.228 196.372 135.547 194.75 137.25 193.56C138.277 192.837 139.42 192.3 140.68 191.95C141.94 191.6 143.41 191.425 145.09 191.425ZM141.135 211.83C141.672 211.83 142.173 211.597 142.64 211.13C143.13 210.64 143.573 209.998 143.97 209.205C144.39 208.388 144.763 207.467 145.09 206.44C145.44 205.413 145.732 204.352 145.965 203.255C146.198 202.158 146.373 201.073 146.49 200C146.63 198.903 146.7 197.912 146.7 197.025C146.7 195.812 146.572 194.983 146.315 194.54C146.082 194.073 145.732 193.84 145.265 193.84C144.728 193.84 144.215 194.073 143.725 194.54C143.235 195.007 142.768 195.637 142.325 196.43C141.905 197.2 141.52 198.098 141.17 199.125C140.843 200.128 140.552 201.167 140.295 202.24C140.062 203.313 139.875 204.375 139.735 205.425C139.618 206.475 139.56 207.443 139.56 208.33C139.56 209.66 139.7 210.582 139.98 211.095C140.283 211.585 140.668 211.83 141.135 211.83ZM176.47 197.06C176.47 198.437 176.085 199.708 175.315 200.875C174.545 202.042 173.273 202.928 171.5 203.535L175.56 214H167.755L164.675 204.305H164.29L162.225 214H154.665L159.39 191.775H168.595C169.668 191.775 170.683 191.845 171.64 191.985C172.597 192.102 173.425 192.358 174.125 192.755C174.848 193.128 175.42 193.665 175.84 194.365C176.26 195.042 176.47 195.94 176.47 197.06ZM166.39 202.065C166.997 202.065 167.51 201.867 167.93 201.47C168.373 201.05 168.723 200.548 168.98 199.965C169.26 199.382 169.458 198.763 169.575 198.11C169.692 197.433 169.75 196.85 169.75 196.36C169.75 195.753 169.645 195.24 169.435 194.82C169.225 194.377 168.77 194.155 168.07 194.155H166.495L164.745 202.065H166.39ZM202.503 214H194.733L197.953 198.88L189.658 214H184.898L183.323 198.355L179.963 214H176.813L181.538 191.775H190.463L191.548 204.305L198.268 191.775H207.263L202.503 214ZM213.905 214H206.345L211.07 191.775H218.665L213.905 214ZM236.416 214H228.226L224.341 197.935L220.911 214H217.761L222.486 191.775H230.851L234.526 208.05L237.991 191.775H241.211L236.416 214ZM252.71 203.85H261.775L259.745 214H255.615L254.95 211.76H254.81C254.203 212.46 253.48 213.055 252.64 213.545C251.823 214.035 250.75 214.28 249.42 214.28C248.393 214.28 247.402 214.117 246.445 213.79C245.512 213.44 244.672 212.903 243.925 212.18C243.202 211.433 242.618 210.465 242.175 209.275C241.732 208.085 241.51 206.65 241.51 204.97C241.51 203.15 241.79 201.423 242.35 199.79C242.91 198.157 243.75 196.722 244.87 195.485C245.99 194.225 247.39 193.233 249.07 192.51C250.75 191.787 252.71 191.425 254.95 191.425C256.677 191.425 258.182 191.623 259.465 192.02C260.748 192.417 261.962 192.86 263.105 193.35L261.775 200.14H255.86C255.883 199.883 255.918 199.58 255.965 199.23C256.012 198.88 256.047 198.518 256.07 198.145C256.093 197.748 256.117 197.363 256.14 196.99C256.163 196.617 256.175 196.29 256.175 196.01C256.175 195.823 256.163 195.613 256.14 195.38C256.117 195.123 256.058 194.878 255.965 194.645C255.872 194.412 255.732 194.225 255.545 194.085C255.358 193.922 255.09 193.84 254.74 193.84C254.133 193.84 253.573 194.097 253.06 194.61C252.57 195.1 252.127 195.765 251.73 196.605C251.333 197.422 250.983 198.355 250.68 199.405C250.4 200.455 250.155 201.528 249.945 202.625C249.758 203.698 249.607 204.76 249.49 205.81C249.397 206.837 249.35 207.735 249.35 208.505C249.35 208.738 249.362 209.03 249.385 209.38C249.408 209.73 249.478 210.08 249.595 210.43C249.735 210.757 249.922 211.048 250.155 211.305C250.412 211.538 250.773 211.655 251.24 211.655C252.01 211.655 252.757 211.235 253.48 210.395C254.203 209.555 254.752 208.155 255.125 206.195H252.185L252.71 203.85ZM89.748 240.85C89.748 241.527 89.643 242.133 89.433 242.67C89.2463 243.207 88.978 243.685 88.628 244.105C88.278 244.525 87.8696 244.898 87.403 245.225C86.9363 245.552 86.423 245.855 85.863 246.135C86.1196 246.228 86.423 246.38 86.773 246.59C87.123 246.777 87.4613 247.045 87.788 247.395C88.1146 247.745 88.383 248.2 88.593 248.76C88.8263 249.297 88.943 249.962 88.943 250.755C88.943 251.805 88.7213 252.773 88.278 253.66C87.8346 254.547 87.1696 255.317 86.283 255.97C85.4196 256.6 84.3463 257.102 83.063 257.475C81.803 257.825 80.3446 258 78.688 258H68.293L73.018 235.775H82.223C83.133 235.775 84.0313 235.845 84.918 235.985C85.828 236.102 86.633 236.347 87.333 236.72C88.0563 237.093 88.6396 237.618 89.083 238.295C89.5263 238.948 89.748 239.8 89.748 240.85ZM80.228 245.085C80.7413 245.085 81.173 244.933 81.523 244.63C81.8963 244.327 82.1996 243.953 82.433 243.51C82.6663 243.043 82.8413 242.553 82.958 242.04C83.0746 241.503 83.133 241.025 83.133 240.605C83.133 239.928 82.9696 239.357 82.643 238.89C82.3396 238.4 81.8496 238.155 81.173 238.155H80.123L78.618 245.085H80.228ZM77.708 255.795C78.408 255.795 78.9913 255.597 79.458 255.2C79.9246 254.803 80.3096 254.313 80.613 253.73C80.9163 253.147 81.1263 252.54 81.243 251.91C81.383 251.257 81.453 250.685 81.453 250.195C81.453 249.378 81.278 248.737 80.928 248.27C80.6013 247.78 80.0646 247.535 79.318 247.535H78.023L76.308 255.795H77.708ZM99.4104 250.055C99.2938 250.568 99.2004 251.012 99.1304 251.385C99.0604 251.758 99.0254 252.108 99.0254 252.435C99.0254 253.252 99.3054 253.905 99.8654 254.395C100.449 254.885 101.3 255.13 102.42 255.13C103.237 255.13 103.902 254.99 104.415 254.71C104.952 254.43 105.384 254.057 105.71 253.59C106.06 253.123 106.329 252.587 106.515 251.98C106.725 251.373 106.9 250.732 107.04 250.055L110.015 235.775H113.2L110.155 250.125C109.922 251.245 109.584 252.295 109.14 253.275C108.697 254.255 108.055 255.118 107.215 255.865C106.399 256.612 105.337 257.207 104.03 257.65C102.724 258.07 101.102 258.28 99.1654 258.28C96.4821 258.28 94.4988 257.848 93.2154 256.985C91.9321 256.098 91.2904 254.745 91.2904 252.925C91.2904 252.108 91.3954 251.07 91.6054 249.81C91.8154 248.55 92.0838 247.185 92.4104 245.715L94.5454 235.775H102.49L99.4104 250.055ZM125.901 242.215C125.971 241.865 126.006 241.387 126.006 240.78C126.006 240.43 125.983 240.092 125.936 239.765C125.89 239.415 125.808 239.112 125.691 238.855C125.575 238.575 125.4 238.365 125.166 238.225C124.933 238.062 124.63 237.98 124.256 237.98C123.836 237.98 123.451 238.073 123.101 238.26C122.751 238.447 122.436 238.692 122.156 238.995C121.9 239.275 121.69 239.613 121.526 240.01C121.386 240.383 121.316 240.78 121.316 241.2C121.316 241.807 121.468 242.273 121.771 242.6C122.098 242.927 122.518 243.195 123.031 243.405C123.545 243.615 124.128 243.79 124.781 243.93C125.435 244.07 126.111 244.233 126.811 244.42C127.395 244.583 127.978 244.793 128.561 245.05C129.145 245.307 129.658 245.657 130.101 246.1C130.568 246.52 130.941 247.08 131.221 247.78C131.501 248.457 131.641 249.308 131.641 250.335C131.641 251.805 131.35 253.042 130.766 254.045C130.183 255.048 129.378 255.865 128.351 256.495C127.325 257.125 126.1 257.58 124.676 257.86C123.276 258.14 121.748 258.28 120.091 258.28C118.411 258.28 117.035 258.175 115.961 257.965C114.911 257.732 114.083 257.487 113.476 257.23C112.753 256.927 112.216 256.577 111.866 256.18L113.056 251.385H119.216C119.193 251.595 119.17 251.887 119.146 252.26C119.123 252.61 119.111 252.89 119.111 253.1C119.111 253.38 119.146 253.672 119.216 253.975C119.286 254.278 119.391 254.558 119.531 254.815C119.695 255.072 119.916 255.282 120.196 255.445C120.476 255.608 120.826 255.69 121.246 255.69C121.713 255.69 122.121 255.585 122.471 255.375C122.845 255.165 123.148 254.908 123.381 254.605C123.638 254.278 123.825 253.928 123.941 253.555C124.081 253.158 124.151 252.773 124.151 252.4C124.151 251.887 124.023 251.455 123.766 251.105C123.533 250.755 123.206 250.463 122.786 250.23C122.366 249.973 121.876 249.763 121.316 249.6C120.78 249.413 120.22 249.227 119.636 249.04C119.076 248.877 118.481 248.678 117.851 248.445C117.245 248.212 116.685 247.885 116.171 247.465C115.658 247.045 115.226 246.52 114.876 245.89C114.55 245.237 114.386 244.408 114.386 243.405C114.386 241.912 114.76 240.663 115.506 239.66C116.276 238.633 117.233 237.805 118.376 237.175C119.543 236.545 120.815 236.102 122.191 235.845C123.568 235.565 124.875 235.425 126.111 235.425C127.745 235.425 129.145 235.623 130.311 236.02C131.501 236.393 132.4 236.837 133.006 237.35L131.711 242.215H125.901ZM140.213 258H132.653L137.378 235.775H144.973L140.213 258ZM162.724 258H154.534L150.649 241.935L147.219 258H144.069L148.794 235.775H157.159L160.834 252.05L164.299 235.775H167.519L162.724 258ZM171.319 235.775H186.054L185.494 238.435H178.354L176.884 245.19H182.869L182.309 247.815H176.324L174.714 255.305H181.854L181.329 258H166.594L171.319 235.775ZM197.815 242.215C197.885 241.865 197.92 241.387 197.92 240.78C197.92 240.43 197.897 240.092 197.85 239.765C197.804 239.415 197.722 239.112 197.605 238.855C197.489 238.575 197.314 238.365 197.08 238.225C196.847 238.062 196.544 237.98 196.17 237.98C195.75 237.98 195.365 238.073 195.015 238.26C194.665 238.447 194.35 238.692 194.07 238.995C193.814 239.275 193.604 239.613 193.44 240.01C193.3 240.383 193.23 240.78 193.23 241.2C193.23 241.807 193.382 242.273 193.685 242.6C194.012 242.927 194.432 243.195 194.945 243.405C195.459 243.615 196.042 243.79 196.695 243.93C197.349 244.07 198.025 244.233 198.725 244.42C199.309 244.583 199.892 244.793 200.475 245.05C201.059 245.307 201.572 245.657 202.015 246.1C202.482 246.52 202.855 247.08 203.135 247.78C203.415 248.457 203.555 249.308 203.555 250.335C203.555 251.805 203.264 253.042 202.68 254.045C202.097 255.048 201.292 255.865 200.265 256.495C199.239 257.125 198.014 257.58 196.59 257.86C195.19 258.14 193.662 258.28 192.005 258.28C190.325 258.28 188.949 258.175 187.875 257.965C186.825 257.732 185.997 257.487 185.39 257.23C184.667 256.927 184.13 256.577 183.78 256.18L184.97 251.385H191.13C191.107 251.595 191.084 251.887 191.06 252.26C191.037 252.61 191.025 252.89 191.025 253.1C191.025 253.38 191.06 253.672 191.13 253.975C191.2 254.278 191.305 254.558 191.445 254.815C191.609 255.072 191.83 255.282 192.11 255.445C192.39 255.608 192.74 255.69 193.16 255.69C193.627 255.69 194.035 255.585 194.385 255.375C194.759 255.165 195.062 254.908 195.295 254.605C195.552 254.278 195.739 253.928 195.855 253.555C195.995 253.158 196.065 252.773 196.065 252.4C196.065 251.887 195.937 251.455 195.68 251.105C195.447 250.755 195.12 250.463 194.7 250.23C194.28 249.973 193.79 249.763 193.23 249.6C192.694 249.413 192.134 249.227 191.55 249.04C190.99 248.877 190.395 248.678 189.765 248.445C189.159 248.212 188.599 247.885 188.085 247.465C187.572 247.045 187.14 246.52 186.79 245.89C186.464 245.237 186.3 244.408 186.3 243.405C186.3 241.912 186.674 240.663 187.42 239.66C188.19 238.633 189.147 237.805 190.29 237.175C191.457 236.545 192.729 236.102 194.105 235.845C195.482 235.565 196.789 235.425 198.025 235.425C199.659 235.425 201.059 235.623 202.225 236.02C203.415 236.393 204.314 236.837 204.92 237.35L203.625 242.215H197.815ZM218.357 242.215C218.427 241.865 218.462 241.387 218.462 240.78C218.462 240.43 218.439 240.092 218.392 239.765C218.346 239.415 218.264 239.112 218.147 238.855C218.031 238.575 217.856 238.365 217.622 238.225C217.389 238.062 217.086 237.98 216.712 237.98C216.292 237.98 215.907 238.073 215.557 238.26C215.207 238.447 214.892 238.692 214.612 238.995C214.356 239.275 214.146 239.613 213.982 240.01C213.842 240.383 213.772 240.78 213.772 241.2C213.772 241.807 213.924 242.273 214.227 242.6C214.554 242.927 214.974 243.195 215.487 243.405C216.001 243.615 216.584 243.79 217.237 243.93C217.891 244.07 218.567 244.233 219.267 244.42C219.851 244.583 220.434 244.793 221.017 245.05C221.601 245.307 222.114 245.657 222.557 246.1C223.024 246.52 223.397 247.08 223.677 247.78C223.957 248.457 224.097 249.308 224.097 250.335C224.097 251.805 223.806 253.042 223.222 254.045C222.639 255.048 221.834 255.865 220.807 256.495C219.781 257.125 218.556 257.58 217.132 257.86C215.732 258.14 214.204 258.28 212.547 258.28C210.867 258.28 209.491 258.175 208.417 257.965C207.367 257.732 206.539 257.487 205.932 257.23C205.209 256.927 204.672 256.577 204.322 256.18L205.512 251.385H211.672C211.649 251.595 211.626 251.887 211.602 252.26C211.579 252.61 211.567 252.89 211.567 253.1C211.567 253.38 211.602 253.672 211.672 253.975C211.742 254.278 211.847 254.558 211.987 254.815C212.151 255.072 212.372 255.282 212.652 255.445C212.932 255.608 213.282 255.69 213.702 255.69C214.169 255.69 214.577 255.585 214.927 255.375C215.301 255.165 215.604 254.908 215.837 254.605C216.094 254.278 216.281 253.928 216.397 253.555C216.537 253.158 216.607 252.773 216.607 252.4C216.607 251.887 216.479 251.455 216.222 251.105C215.989 250.755 215.662 250.463 215.242 250.23C214.822 249.973 214.332 249.763 213.772 249.6C213.236 249.413 212.676 249.227 212.092 249.04C211.532 248.877 210.937 248.678 210.307 248.445C209.701 248.212 209.141 247.885 208.627 247.465C208.114 247.045 207.682 246.52 207.332 245.89C207.006 245.237 206.842 244.408 206.842 243.405C206.842 241.912 207.216 240.663 207.962 239.66C208.732 238.633 209.689 237.805 210.832 237.175C211.999 236.545 213.271 236.102 214.647 235.845C216.024 235.565 217.331 235.425 218.567 235.425C220.201 235.425 221.601 235.623 222.767 236.02C223.957 236.393 224.856 236.837 225.462 237.35L224.167 242.215H218.357ZM229.834 235.775H244.569L244.009 238.435H236.869L235.399 245.19H241.384L240.824 247.815H234.839L233.229 255.305H240.369L239.844 258H225.109L229.834 235.775ZM256.331 242.215C256.401 241.865 256.436 241.387 256.436 240.78C256.436 240.43 256.413 240.092 256.366 239.765C256.319 239.415 256.238 239.112 256.121 238.855C256.004 238.575 255.829 238.365 255.596 238.225C255.363 238.062 255.059 237.98 254.686 237.98C254.266 237.98 253.881 238.073 253.531 238.26C253.181 238.447 252.866 238.692 252.586 238.995C252.329 239.275 252.119 239.613 251.956 240.01C251.816 240.383 251.746 240.78 251.746 241.2C251.746 241.807 251.898 242.273 252.201 242.6C252.528 242.927 252.948 243.195 253.461 243.405C253.974 243.615 254.558 243.79 255.211 243.93C255.864 244.07 256.541 244.233 257.241 244.42C257.824 244.583 258.408 244.793 258.991 245.05C259.574 245.307 260.088 245.657 260.531 246.1C260.998 246.52 261.371 247.08 261.651 247.78C261.931 248.457 262.071 249.308 262.071 250.335C262.071 251.805 261.779 253.042 261.196 254.045C260.613 255.048 259.808 255.865 258.781 256.495C257.754 257.125 256.529 257.58 255.106 257.86C253.706 258.14 252.178 258.28 250.521 258.28C248.841 258.28 247.464 258.175 246.391 257.965C245.341 257.732 244.513 257.487 243.906 257.23C243.183 256.927 242.646 256.577 242.296 256.18L243.486 251.385H249.646C249.623 251.595 249.599 251.887 249.576 252.26C249.553 252.61 249.541 252.89 249.541 253.1C249.541 253.38 249.576 253.672 249.646 253.975C249.716 254.278 249.821 254.558 249.961 254.815C250.124 255.072 250.346 255.282 250.626 255.445C250.906 255.608 251.256 255.69 251.676 255.69C252.143 255.69 252.551 255.585 252.901 255.375C253.274 255.165 253.578 254.908 253.811 254.605C254.068 254.278 254.254 253.928 254.371 253.555C254.511 253.158 254.581 252.773 254.581 252.4C254.581 251.887 254.453 251.455 254.196 251.105C253.963 250.755 253.636 250.463 253.216 250.23C252.796 249.973 252.306 249.763 251.746 249.6C251.209 249.413 250.649 249.227 250.066 249.04C249.506 248.877 248.911 248.678 248.281 248.445C247.674 248.212 247.114 247.885 246.601 247.465C246.088 247.045 245.656 246.52 245.306 245.89C244.979 245.237 244.816 244.408 244.816 243.405C244.816 241.912 245.189 240.663 245.936 239.66C246.706 238.633 247.663 237.805 248.806 237.175C249.973 236.545 251.244 236.102 252.621 235.845C253.998 235.565 255.304 235.425 256.541 235.425C258.174 235.425 259.574 235.623 260.741 236.02C261.931 236.393 262.829 236.837 263.436 237.35L262.141 242.215H256.331ZM282.963 237C282.963 237.887 282.753 238.738 282.333 239.555C281.913 240.372 281.376 241.13 280.723 241.83C280.093 242.507 279.37 243.113 278.553 243.65C277.76 244.187 276.978 244.595 276.208 244.875L275.228 243.405C276.068 242.752 276.698 242.168 277.118 241.655C277.561 241.142 277.783 240.64 277.783 240.15C277.783 239.31 277.13 238.412 275.823 237.455C275.823 236.895 275.928 236.393 276.138 235.95C276.348 235.507 276.628 235.133 276.978 234.83C277.351 234.527 277.771 234.293 278.238 234.13C278.705 233.967 279.183 233.885 279.673 233.885C280.606 233.885 281.388 234.142 282.018 234.655C282.648 235.168 282.963 235.95 282.963 237ZM273.723 237C273.723 237.887 273.513 238.738 273.093 239.555C272.673 240.372 272.136 241.13 271.483 241.83C270.83 242.507 270.095 243.113 269.278 243.65C268.485 244.187 267.703 244.595 266.933 244.875L265.953 243.405C266.793 242.752 267.423 242.168 267.843 241.655C268.286 241.142 268.508 240.64 268.508 240.15C268.508 239.31 267.866 238.412 266.583 237.455C266.583 236.895 266.688 236.393 266.898 235.95C267.108 235.507 267.388 235.133 267.738 234.83C268.088 234.527 268.496 234.293 268.963 234.13C269.43 233.967 269.908 233.885 270.398 233.885C271.355 233.885 272.148 234.142 272.778 234.655C273.408 235.168 273.723 235.95 273.723 237Z" fill="#167208"/>
</svg>
